<?xml version="1.0" encoding="utf-8"?>
<!-- Generator: Adobe Illustrator 24.0.0, SVG Export Plug-In . SVG Version: 6.00 Build 0)  -->
<svg version="1.1" id="Layer_1" xmlns="http://www.w3.org/2000/svg" xmlns:xlink="http://www.w3.org/1999/xlink" x="0px" y="0px"
	 viewBox="0 0 224 65" style="enable-background:new 0 0 224 65;" xml:space="preserve">
<style type="text/css">
	.st0{fill:#10112C;}
	.st1{fill:#FFFFFF;}
	.st2{fill:#927BB7;}
</style>
<rect x="0" y="0" transform="matrix(-1 1.205892e-10 -1.205892e-10 -1 224 65)" class="st0" width="224" height="65"/>
<g>
	<g>
		<path class="st1" d="M84.9,37.6L73.6,8.1h6.5l8.2,22.6l8.2-22.6h6.5L91.7,37.6H84.9z"/>
		<path class="st1" d="M113.2,38.1c-2.6,0-4.6-0.7-6.1-2.2c-1.5-1.5-2.2-3.6-2.2-6.4V15.9h6.2v13.5c0,1.5,0.4,2.5,1.1,3.2
			c0.7,0.7,1.8,1,3.2,1c1.1,0,2.1-0.2,3-0.6c0.9-0.4,1.7-1,2.3-1.6V15.9h6.2v21.8h-5.7l-0.2-2.1c-0.9,0.7-2,1.3-3.2,1.8
			C116.4,37.9,114.9,38.1,113.2,38.1z"/>
		<path class="st1" d="M173.8,38.1c-1.4,0-2.7-0.3-3.8-0.8c-1.2-0.5-2.1-1.3-2.8-2.2c-0.7-1-1.1-2.2-1.1-3.7c0-2.1,0.8-3.9,2.3-5.1
			c1.5-1.3,3.8-1.9,6.7-1.9h6.4v-0.6c0-1.3-0.4-2.3-1.1-2.8c-0.7-0.6-2.3-0.8-4.5-0.8c-2.5,0-4.9,0.4-7.2,1.1v-4.4
			c1-0.4,2.2-0.7,3.7-1c1.5-0.3,3-0.4,4.8-0.4c3.3,0,5.8,0.7,7.6,2c1.8,1.3,2.7,3.5,2.7,6.4v13.8H182l-0.3-2
			c-0.9,0.8-1.9,1.4-3.2,1.8C177.2,37.9,175.7,38.1,173.8,38.1z M175.5,34c1.4,0,2.6-0.2,3.6-0.7c1-0.5,1.8-1,2.4-1.7v-3.4h-6.3
			c-2.4,0-3.6,1-3.6,3C171.5,33.1,172.8,34,175.5,34z"/>
		<path class="st1" d="M208,24v19.7l6.2-6.1v-14c0-2.8-0.7-4.9-2-6.2c-1.3-1.3-3.4-2-6.3-2c-1.5,0-2.9,0.3-4.3,0.8
			c-1.4,0.5-2.5,1.1-3.4,1.8l-0.2-2.1h-5.7v21.8h6.2V22.2c0.6-0.6,1.4-1.2,2.4-1.6c1-0.4,1.9-0.6,2.9-0.6c1.6,0,2.7,0.3,3.3,0.9
			C207.8,21.5,208,22.5,208,24z"/>
		<polygon class="st1" points="165,15.9 157.9,15.9 149.8,23.7 149.8,6.7 149.7,6.7 143.6,12.8 143.6,37.6 149.8,37.6 149.8,30.5 
			152.3,28.1 158.9,37.6 165.5,37.6 156.2,24.8 		"/>
		<polygon class="st1" points="132.1,12.6 132.1,37.6 138.2,37.6 138.2,6.7 138.2,6.7 		"/>
	</g>
	<polygon class="st2" points="39.6,13.5 19.9,30.5 19.9,13.5 13.4,19.1 13.4,43.5 48.2,13.5 	"/>
	<polygon class="st1" points="32.9,39.8 40.2,49.2 46.6,49.1 33.3,32 13.4,49.1 13.4,49.2 22,49.2 	"/>
	<g>
		<path class="st1" d="M55.4,56H6.2V6.7h49.2V56z M7.9,54.3h45.9V8.4H7.9V54.3z"/>
	</g>
	<g>
		<path class="st1" d="M168,55.8v-9.5h4.5c0.7,0,1.4,0.1,1.8,0.4c0.5,0.3,0.8,0.7,1.1,1.2c0.2,0.5,0.4,1.1,0.4,1.7
			c0,0.6-0.1,1.2-0.4,1.7c-0.3,0.5-0.7,0.9-1.2,1.1c-0.5,0.3-1.1,0.4-1.8,0.4H170v3H168z M170,51.2h2c0.6,0,1-0.2,1.3-0.5
			c0.3-0.3,0.4-0.7,0.4-1.2c0-0.6-0.1-1-0.4-1.3c-0.3-0.3-0.7-0.4-1.2-0.4H170V51.2z"/>
		<path class="st1" d="M176.8,55.8v-7h1.9l0.1,0.7c0.3-0.2,0.7-0.4,1.2-0.5c0.5-0.2,0.9-0.3,1.4-0.3v1.5c-0.3,0-0.6,0.1-0.9,0.2
			c-0.3,0.1-0.6,0.2-0.9,0.3c-0.3,0.1-0.5,0.2-0.7,0.3v4.9H176.8z"/>
		<path class="st1" d="M183,55.8v-5.5H182l0.2-1.5h2.9v7H183z M182.9,47.5v-1.6h2.2v1.6H182.9z"/>
		<path class="st1" d="M186.7,55.8v-7h1.9l0.1,0.7c0.3-0.3,0.7-0.5,1.1-0.6c0.4-0.1,0.8-0.2,1.3-0.2c0.5,0,0.9,0.1,1.1,0.2
			c0.3,0.1,0.5,0.4,0.6,0.6c0.3-0.3,0.7-0.5,1.1-0.6c0.4-0.2,0.9-0.2,1.5-0.2c0.8,0,1.4,0.2,1.8,0.6c0.4,0.4,0.6,1.1,0.6,1.9v4.6h-2
			v-4.4c0-0.5-0.1-0.8-0.3-1s-0.5-0.3-0.9-0.3c-0.6,0-1.1,0.2-1.5,0.6c0,0.2,0.1,0.4,0.1,0.6v4.5h-1.9v-4.4c0-0.4-0.1-0.8-0.2-1
			c-0.1-0.2-0.4-0.3-0.9-0.3c-0.3,0-0.6,0.1-0.8,0.2c-0.3,0.2-0.5,0.3-0.7,0.5v4.9H186.7z"/>
		<path class="st1" d="M202.9,56c-1.2,0-2.2-0.3-2.9-0.9c-0.7-0.6-1.1-1.5-1.1-2.8c0-1.1,0.3-2,0.9-2.7c0.6-0.7,1.5-1,2.7-1
			c1.1,0,1.9,0.3,2.5,0.9c0.6,0.6,0.9,1.3,0.9,2.2V53h-5.1c0.1,0.6,0.4,0.9,0.8,1.2c0.4,0.2,1,0.3,1.7,0.3c0.4,0,0.8,0,1.1-0.1
			c0.4-0.1,0.7-0.2,1-0.3v1.4c-0.3,0.1-0.7,0.3-1.1,0.3C203.8,55.9,203.4,56,202.9,56z M200.8,51.8h3.3v-0.4c0-0.4-0.1-0.7-0.4-1
			c-0.2-0.2-0.6-0.3-1.2-0.3c-0.7,0-1.1,0.1-1.4,0.4C200.9,50.7,200.8,51.2,200.8,51.8z"/>
	</g>
</g>
</svg>
