<?xml version="1.0" encoding="utf-8"?>
<!-- Generator: Adobe Illustrator 24.0.0, SVG Export Plug-In . SVG Version: 6.00 Build 0)  -->
<svg version="1.1" id="Layer_1" xmlns="http://www.w3.org/2000/svg" xmlns:xlink="http://www.w3.org/1999/xlink" x="0px" y="0px"
	 viewBox="0 0 144 41" style="enable-background:new 0 0 144 41;" xml:space="preserve">
<style type="text/css">
	.st0{fill:#FFFFFF;}
</style>
<g>
	<g>
		<g>
			<g>
				<g>
					<path class="st0" d="M110.7,21.7l-3.4,7.5h-2.1l-3.5-7.5h1.8l2.7,6.2l2.7-6.2H110.7z"/>
				</g>
			</g>
			<g>
				<g>
					<path class="st0" d="M116.3,21.7v7.5h-1.7v-7.5H116.3z"/>
				</g>
			</g>
			<g>
				<g>
					<path class="st0" d="M127.7,29.2H121v-7.5h6.5l-0.7,1.3h-4.1v1.7h4.5l-0.7,1.3h-3.8v1.9h4.2L127.7,29.2z"/>
				</g>
			</g>
			<g>
				<g>
					<path class="st0" d="M143.7,21.7l-2.6,7.5h-2l-1.5-5.1l-1.5,5.1h-2l-2.6-7.5h1.8l1.9,5.7l1.7-5.7h1.6l1.7,5.7l1.8-5.7H143.7z"
						/>
				</g>
			</g>
			<g>
				<path class="st0" d="M35.8,19.4l-2.8-1.3l-3.3,0.3c0,0,0,0,0,0l-5,4.2l-0.7-0.8c0,0,0,0-0.1,0l-4.1-1l0,0c0,0-3.8,0.4-3.8,0.4
					c0,0,0,0-0.1,0l-4.7,8.3c0,0,0,0.1,0,0.1c0,0,1.4,3.4,1.4,3.4c0,0,0.1,0.1,0.1,0.1c0,0,0.9-0.1,0.9-0.1l0.1-0.2L12.8,33l4.2-7.7
					c0,0,3.6,5.2,3.6,5.2c0,0,0,0,0,0c0,0,0,0,0.1,0l2.4,0l-3.8,9c0,0,0,0,0,0.1c0,0,0,0,0.1,0l4.9,0.4l3.6-1c0,0,0.1,0,0.1-0.1
					l6.7-14.7c0,0,0-0.1,0-0.1c0,0,0-0.1-0.1-0.1l-0.8-0.2l2.2-1.7c0.1,0,0.1-0.1,0.1-0.2v-2.3C35.9,19.6,35.9,19.5,35.8,19.4z
					 M20,21.2l3.7,0.9l0.7,0.7l-2,1.7L20,21.2z M34.3,24.2l-6.6,14.6l-3.4,0.9l7.1-16.3L34.3,24.2z M33.4,23.8l-2.1-0.5l0,0h0
					c0,0,0,0,0,0c0,0,0,0,0,0l-8,7l-2.2,0L32.9,21l2.7,1L33.4,23.8z M35.7,21.8l-2.8-1v-2.5l2.8,1.3V21.8z"/>
			</g>
		</g>
		<g>
			<g>
				<g>
					<path class="st0" d="M50.7,23h-2.8v6.1h-1.7V23h-2.8l0.7-1.3h6.7V23z"/>
				</g>
			</g>
			<g>
				<g>
					<path class="st0" d="M61,29.2l-1.6-2.5c0,0,0,0,0,0h-2.7v2.5H55v-7.5h4.6c2,0,3.1,1,3.1,2.5c0,1.2-0.6,1.9-1.5,2.2l1.8,2.8H61z
						 M56.7,25.3h2.8c1,0,1.4-0.5,1.4-1.2c0-0.6-0.3-1.2-1.4-1.2h-2.8V25.3z"/>
				</g>
			</g>
			<g>
				<g>
					<path class="st0" d="M72.9,27.7h-4.1l-0.6,1.5h-1.8l3.5-7.5h2.1l3.4,7.5h-1.8L72.9,27.7z M72.3,26.4L70.8,23l-1.5,3.4H72.3z"/>
				</g>
			</g>
			<g>
				<g>
					<path class="st0" d="M87.1,25.4c0,3-2.2,3.7-4.5,3.7h-3.4v-7.5h3.4C85,21.7,87.1,22.4,87.1,25.4z M85.4,25.4
						c0-1.9-1.1-2.4-2.9-2.4H81v4.8h1.5C84.3,27.8,85.4,27.4,85.4,25.4z"/>
				</g>
			</g>
			<g>
				<g>
					<path class="st0" d="M96.8,25.1l0.3-0.6h-4.6c0.3-1.2,1.3-1.5,2.8-1.5h1.5l1,0l0.7-1.3h-3.4c-2.2,0-4.3,0.7-4.5,3.4L96.8,25.1z
						"/>
				</g>
				<g>
					<path class="st0" d="M96.7,27.8h-1.5c-1.5,0-2.5-0.3-2.8-1.5h3.8l0.3-0.6l-5.9,0c0.1,2.7,2.2,3.4,4.5,3.4h3.4l-0.7-1.3
						L96.7,27.8z"/>
				</g>
			</g>
			<g>
				<g>
					<path class="st0" d="M71.4,32.8v3.6h-0.8v-2.8l-1.2,2.8h-0.8l-1.2-2.8v2.8h-0.8v-3.6h1.3l1.1,2.7l1.1-2.7H71.4z"/>
				</g>
				<g>
					<path class="st0" d="M79,35.6h-2l-0.3,0.7h-0.9l1.7-3.6h1l1.6,3.6h-0.9L79,35.6z M78.7,35L78,33.4L77.3,35H78.7z"/>
				</g>
				<g>
					<path class="st0" d="M87.5,36.3l-0.8-1.2c0,0,0,0,0,0h-1.3v1.2h-0.8v-3.6h2.2c1,0,1.5,0.5,1.5,1.2c0,0.6-0.3,0.9-0.7,1.1
						l0.9,1.3H87.5z M85.4,34.5h1.4c0.5,0,0.7-0.3,0.7-0.6c0-0.3-0.2-0.6-0.7-0.6h-1.4V34.5z"/>
				</g>
				<g>
					<path class="st0" d="M94.5,34.7l-0.8,0.7v1h-0.8v-3.6h0.8v1.7l1.8-1.7h1.1l-1.5,1.4l1.6,2.2h-1L94.5,34.7z"/>
				</g>
				<g>
					<path class="st0" d="M104.4,36.3h-3.2v-3.6h3.1v0.6H102v0.8h2.2v0.6H102v0.9h2.4V36.3z"/>
				</g>
				<g>
					<path class="st0" d="M112.4,33.4H111v2.9h-0.8v-2.9h-1.4v-0.6h3.5V33.4z"/>
				</g>
				<g>
					<path class="st0" d="M120.5,35.2c0,0.8-0.6,1.2-1.9,1.2c-1.2,0-1.9-0.5-1.9-1.2h0.9c0,0.4,0.4,0.6,1.1,0.6c0.7,0,1-0.2,1-0.4
						c0-0.4-0.6-0.3-1.5-0.5c-1-0.2-1.3-0.5-1.3-1c0-0.6,0.4-1.1,1.7-1.1c1.3,0,1.8,0.5,1.8,1.1h-0.8c0-0.3-0.3-0.5-1-0.5
						c-0.7,0-0.9,0.2-0.9,0.4c0,0.3,0.6,0.4,1.2,0.4C119.8,34.3,120.5,34.4,120.5,35.2z"/>
				</g>
			</g>
			<g>
				<path class="st0" d="M19.4,38.6l3.4-7.7c0,0,0,0,0-0.1c0,0,0,0,0,0l-0.2-0.3l0,0c-0.1,0-0.2,0-0.3,0l0.2,0.2L20,30.9l-2.8-3.8
					l1.2,0.1c-0.1-0.1-0.1-0.2-0.2-0.2l-1.3-0.1c0,0-0.1,0-0.1,0.1l-3.2,6l0,0l-0.1,0.2l0,0l-1,1.8l-3.3-8.4l3.5,0.4l0.1-0.2
					l-2.6-0.3l2.9-0.1l0,0l0.1-0.2l-6.4,0.2l-3-0.2l8.6-0.4l1.1,0l0.1-0.2l-0.8,0l-0.1,0l2.4-4l0.8,0.2l0.1-0.2L15,21.3L0.4,22.5
					c0,0,0,0-0.1,0c0,0,0,0,0,0.1l1.4,3.6c0,0,0,0,0,0c0,0,0,0,0,0l4.4,0.3l-1.6,0.1c0,0,0,0-0.1,0c0,0,0,0,0,0.1l4.6,12.1
					c0,0,0,0,0.1,0l6.9,0.5L19.4,38.6C19.4,38.7,19.4,38.6,19.4,38.6z M16.1,39.1l3.9-8l2.5-0.2l-3.3,7.5L16.1,39.1z"/>
			</g>
		</g>
	</g>
	<g>
		<path class="st0" d="M0.8,6.4V1.3h2.3c0.4,0,0.7,0.1,1,0.2c0.3,0.1,0.4,0.4,0.6,0.6C4.8,2.4,4.9,2.7,4.9,3c0,0.5-0.2,0.9-0.5,1.2
			C4.1,4.5,3.6,4.7,3.1,4.7H1.7v1.7H0.8z M1.7,4h1.2c0.3,0,0.6-0.1,0.8-0.3C3.9,3.5,4,3.3,4,3c0-0.3-0.1-0.6-0.3-0.8
			C3.6,2,3.3,1.9,3,1.9H1.7V4z"/>
		<path class="st0" d="M7.4,6.5C6.7,6.5,6.2,6.3,5.9,6S5.4,5.2,5.4,4.5s0.2-1.1,0.5-1.5c0.3-0.3,0.8-0.5,1.5-0.5
			c0.7,0,1.2,0.2,1.5,0.5c0.3,0.3,0.5,0.8,0.5,1.5S9.2,5.6,8.9,6C8.6,6.3,8.1,6.5,7.4,6.5z M7.4,5.8c0.4,0,0.7-0.1,0.9-0.3
			C8.4,5.3,8.5,5,8.5,4.5c0-0.4-0.1-0.8-0.3-0.9C8.1,3.4,7.8,3.3,7.4,3.3C7,3.3,6.7,3.4,6.5,3.6C6.4,3.8,6.3,4.1,6.3,4.5
			c0,0.4,0.1,0.8,0.3,0.9C6.7,5.7,7,5.8,7.4,5.8z"/>
		<path class="st0" d="M10.7,6.4l-1-3.8h0.9l0.7,2.8L12,3.1V2.6h0.7l0.8,2.8l0.7-2.8H15l-1,3.8h-0.8l-0.8-2.5l-0.8,2.5H10.7z"/>
		<path class="st0" d="M17.4,6.5c-0.7,0-1.2-0.2-1.5-0.5c-0.4-0.3-0.5-0.8-0.5-1.5c0-0.6,0.2-1.1,0.5-1.4c0.3-0.4,0.8-0.5,1.4-0.5
			c0.6,0,1,0.2,1.3,0.5c0.3,0.3,0.4,0.7,0.4,1.2v0.7h-2.8c0,0.4,0.2,0.6,0.4,0.8c0.2,0.1,0.6,0.2,1,0.2c0.2,0,0.4,0,0.6-0.1
			c0.2,0,0.4-0.1,0.5-0.1v0.6c-0.2,0.1-0.4,0.1-0.6,0.2S17.6,6.5,17.4,6.5z M16.1,4.3h2V4c0-0.3-0.1-0.5-0.2-0.6
			c-0.1-0.1-0.4-0.2-0.7-0.2c-0.4,0-0.7,0.1-0.8,0.3C16.2,3.6,16.1,3.9,16.1,4.3z"/>
		<path class="st0" d="M19.7,6.4V2.6h0.8l0,0.4C20.8,3,21,2.8,21.2,2.7c0.3-0.1,0.5-0.2,0.7-0.2v0.7c-0.1,0-0.3,0.1-0.5,0.1
			S21.2,3.4,21,3.5c-0.2,0.1-0.3,0.1-0.4,0.2v2.7H19.7z"/>
		<path class="st0" d="M24.4,6.5c-0.7,0-1.2-0.2-1.5-0.5c-0.4-0.3-0.5-0.8-0.5-1.5c0-0.6,0.2-1.1,0.5-1.4c0.3-0.4,0.8-0.5,1.4-0.5
			c0.6,0,1,0.2,1.3,0.5c0.3,0.3,0.4,0.7,0.4,1.2v0.7h-2.8c0,0.4,0.2,0.6,0.4,0.8c0.2,0.1,0.6,0.2,1,0.2c0.2,0,0.4,0,0.6-0.1
			c0.2,0,0.4-0.1,0.5-0.1v0.6c-0.2,0.1-0.4,0.1-0.6,0.2S24.6,6.5,24.4,6.5z M23.1,4.3h2V4c0-0.3-0.1-0.5-0.2-0.6
			c-0.1-0.1-0.4-0.2-0.7-0.2c-0.4,0-0.7,0.1-0.8,0.3C23.2,3.6,23.1,3.9,23.1,4.3z"/>
		<path class="st0" d="M28.3,6.5c-0.3,0-0.6-0.1-0.9-0.2C27.2,6.2,27,6,26.8,5.7s-0.2-0.6-0.2-1.1c0-0.5,0.1-0.8,0.2-1.1
			c0.2-0.3,0.4-0.5,0.6-0.7c0.3-0.2,0.6-0.2,0.9-0.2c0.2,0,0.4,0,0.6,0.1c0.2,0.1,0.4,0.1,0.5,0.2V1h0.9v5.4h-0.7L29.6,6
			c-0.2,0.2-0.4,0.3-0.6,0.3C28.8,6.5,28.6,6.5,28.3,6.5z M28.6,5.8c0.4,0,0.7-0.1,1-0.4V3.5c-0.3-0.2-0.6-0.3-0.9-0.3
			c-0.4,0-0.6,0.1-0.8,0.4c-0.2,0.2-0.3,0.6-0.3,1.1c0,0.5,0.1,0.8,0.3,0.9C27.9,5.8,28.2,5.8,28.6,5.8z"/>
		<path class="st0" d="M35.3,6.5c-0.3,0-0.5,0-0.7-0.1C34.4,6.3,34.2,6.2,34,6l0,0.4h-0.8V1h0.9v1.8c0.3-0.2,0.7-0.3,1.2-0.3
			c0.5,0,1,0.2,1.3,0.5c0.3,0.3,0.5,0.8,0.5,1.5c0,0.7-0.2,1.2-0.5,1.5C36.3,6.3,35.9,6.5,35.3,6.5z M35.1,5.8
			c0.4,0,0.7-0.1,0.8-0.3s0.2-0.6,0.2-1c0-0.5-0.1-0.8-0.3-1c-0.2-0.2-0.5-0.3-0.8-0.3c-0.4,0-0.7,0.1-1,0.3v1.9
			C34.4,5.7,34.7,5.8,35.1,5.8z"/>
		<path class="st0" d="M38.3,7.8c-0.3,0-0.5,0-0.7-0.1V7.1c0.1,0,0.2,0.1,0.3,0.1s0.2,0,0.2,0c0.2,0,0.3,0,0.4-0.1
			c0.1-0.1,0.2-0.1,0.3-0.3c0.1-0.1,0.2-0.3,0.3-0.4l-1.7-3.7h0.9l1.2,2.8l1.2-2.8h0.9L40,6.2c-0.1,0.3-0.3,0.6-0.4,0.8
			c-0.2,0.2-0.3,0.4-0.5,0.6C38.9,7.8,38.6,7.8,38.3,7.8z"/>
		<path class="st0" d="M42.1,3.8V3.1h0.7v0.7H42.1z M42.1,6.2V5.5h0.7v0.7H42.1z"/>
	</g>
</g>
</svg>
